<?xml version="1.0" encoding="utf-8"?><!-- Uploaded to: SVG Repo, www.svgrepo.com, Generator: SVG Repo Mixer Tools -->
<svg width="800px" height="800px" viewBox="0 0 64 64" id="Layer_1" data-name="Layer 1" xmlns="http://www.w3.org/2000/svg"><defs><style>.cls-1{fill:none;stroke:#000000;stroke-linecap:round;stroke-linejoin:round;stroke-width:2px;}</style></defs><title>gorilla, animal, jungle, mammal</title><path class="cls-1" d="M38.92,29.59,39.67,35l.84,1.75a11.77,11.77,0,0,1,1.16,5.1h0a11.77,11.77,0,0,1-1.07,4.91l-.3.66"/><path class="cls-1" d="M42.5,22.59a5.1,5.1,0,0,1,5.09,5.08V46.46a1,1,0,0,1-1,1H36.14l.61-1.07a11.8,11.8,0,0,0,1.36-3.77L38.38,41"/><path class="cls-1" d="M24.84,22.59a5.09,5.09,0,0,0-5.08,4.84,2,2,0,0,0,0,.24"/><path class="cls-1" d="M19.75,27.26c0,.83,3.83,20.17,3.83,20.17h5V45.18l-2.25-.25,2.25-7.17-1.42-10.5"/><path class="cls-1" d="M33.67,35.42A11.68,11.68,0,0,1,28.08,34"/><path class="cls-1" d="M42.5,22.59H37a7.17,7.17,0,0,1-4.91-1.95l-6-5.63h0a4.16,4.16,0,0,0-4.87.18L17.67,18v2.63l-1.25,1.08v3.58h3.95"/><circle cx="36.32" cy="35.15" r="1"/></svg>